<mxfile host="app.diagrams.net" modified="2022-04-22T14:03:48.847Z" agent="5.0 (Windows NT 10.0; Win64; x64) AppleWebKit/537.36 (KHTML, like Gecko) Chrome/99.0.4844.51 Safari/537.36" etag="dPs9wvXdv5VmbQ_u0c2U" version="17.4.6" type="github" pages="2">
  <diagram id="q-ANHGBc3iWFSovor3je" name="TransportServer">
    <mxGraphModel dx="569" dy="344" grid="1" gridSize="10" guides="1" tooltips="1" connect="1" arrows="1" fold="1" page="1" pageScale="1" pageWidth="827" pageHeight="1169" math="0" shadow="0">
      <root>
        <mxCell id="0" />
        <mxCell id="1" parent="0" />
        <mxCell id="bU6mloSPx2sbx54e6or_-36" value="" style="rounded=0;whiteSpace=wrap;html=1;labelBackgroundColor=none;fontColor=#000000;fillColor=none;dashed=1;strokeWidth=3;" vertex="1" parent="1">
          <mxGeometry x="500" y="750" width="240" height="180" as="geometry" />
        </mxCell>
        <mxCell id="bU6mloSPx2sbx54e6or_-11" style="edgeStyle=orthogonalEdgeStyle;rounded=0;orthogonalLoop=1;jettySize=auto;html=1;exitX=0.5;exitY=1;exitDx=0;exitDy=0;entryX=0.5;entryY=0;entryDx=0;entryDy=0;fontColor=#000000;" edge="1" parent="1" source="bU6mloSPx2sbx54e6or_-1" target="bU6mloSPx2sbx54e6or_-4">
          <mxGeometry relative="1" as="geometry" />
        </mxCell>
        <mxCell id="bU6mloSPx2sbx54e6or_-1" value="&lt;pre style=&quot;font-family: &amp;#34;jetbrains mono&amp;#34; ; font-size: 9.8pt&quot;&gt;传入构造函数的参数&lt;br/&gt;RPCServerConfig的实例&lt;br/&gt;&lt;/pre&gt;" style="rounded=1;whiteSpace=wrap;html=1;fillColor=#d5e8d4;strokeColor=#82b366;" vertex="1" parent="1">
          <mxGeometry x="150" y="98" width="160" height="60" as="geometry" />
        </mxCell>
        <mxCell id="bU6mloSPx2sbx54e6or_-2" value="&lt;pre style=&quot;font-family: &amp;#34;jetbrains mono&amp;#34; ; font-size: 9.8pt&quot;&gt;RpcServer的初始化过程&lt;/pre&gt;" style="text;html=1;strokeColor=none;fillColor=none;align=center;verticalAlign=middle;whiteSpace=wrap;rounded=0;labelBackgroundColor=none;fontColor=#000000;" vertex="1" parent="1">
          <mxGeometry x="152" y="50" width="160" height="30" as="geometry" />
        </mxCell>
        <mxCell id="bU6mloSPx2sbx54e6or_-3" value="具体包括：&lt;br&gt;&lt;span style=&quot;white-space: pre&quot;&gt;	&lt;/span&gt;网络模块&lt;br&gt;&lt;span style=&quot;white-space: pre&quot;&gt;	&lt;/span&gt;序列化实现&lt;br&gt;&lt;span style=&quot;white-space: pre&quot;&gt;	&lt;/span&gt;反序列化实现&lt;br&gt;&lt;span style=&quot;white-space: pre&quot;&gt;	&lt;/span&gt;端口号" style="rounded=1;whiteSpace=wrap;html=1;labelBackgroundColor=none;fontColor=#000000;align=left;" vertex="1" parent="1">
          <mxGeometry y="80" width="120" height="80" as="geometry" />
        </mxCell>
        <mxCell id="bU6mloSPx2sbx54e6or_-12" style="edgeStyle=orthogonalEdgeStyle;rounded=0;orthogonalLoop=1;jettySize=auto;html=1;exitX=0.5;exitY=1;exitDx=0;exitDy=0;entryX=0.5;entryY=0;entryDx=0;entryDy=0;fontColor=#000000;" edge="1" parent="1" source="bU6mloSPx2sbx54e6or_-4" target="bU6mloSPx2sbx54e6or_-5">
          <mxGeometry relative="1" as="geometry" />
        </mxCell>
        <mxCell id="bU6mloSPx2sbx54e6or_-4" value="&lt;pre style=&quot;font-family: &amp;#34;jetbrains mono&amp;#34; ; font-size: 9.8pt&quot;&gt;创建一个网络模块的实例&lt;/pre&gt;" style="rounded=1;whiteSpace=wrap;html=1;fillColor=#d5e8d4;strokeColor=#82b366;" vertex="1" parent="1">
          <mxGeometry x="150" y="190" width="160" height="60" as="geometry" />
        </mxCell>
        <mxCell id="bU6mloSPx2sbx54e6or_-13" style="edgeStyle=orthogonalEdgeStyle;rounded=0;orthogonalLoop=1;jettySize=auto;html=1;exitX=0.5;exitY=1;exitDx=0;exitDy=0;entryX=0.5;entryY=0;entryDx=0;entryDy=0;fontColor=#000000;" edge="1" parent="1" source="bU6mloSPx2sbx54e6or_-5" target="bU6mloSPx2sbx54e6or_-7">
          <mxGeometry relative="1" as="geometry" />
        </mxCell>
        <mxCell id="bU6mloSPx2sbx54e6or_-20" value="" style="edgeStyle=orthogonalEdgeStyle;rounded=0;orthogonalLoop=1;jettySize=auto;html=1;fontColor=#000000;" edge="1" parent="1" source="bU6mloSPx2sbx54e6or_-5">
          <mxGeometry relative="1" as="geometry">
            <mxPoint x="50" y="310" as="targetPoint" />
          </mxGeometry>
        </mxCell>
        <mxCell id="bU6mloSPx2sbx54e6or_-5" value="&lt;pre style=&quot;font-family: &amp;quot;jetbrains mono&amp;quot; ; font-size: 9.8pt&quot;&gt;调用网络模块实例的&lt;br&gt;初始化方法&lt;/pre&gt;" style="rounded=1;whiteSpace=wrap;html=1;fillColor=#d5e8d4;strokeColor=#82b366;fontColor=#FF0000;" vertex="1" parent="1">
          <mxGeometry x="150" y="280" width="160" height="60" as="geometry" />
        </mxCell>
        <mxCell id="bU6mloSPx2sbx54e6or_-6" value="参数包括：&lt;br&gt;&lt;span style=&quot;white-space: pre&quot;&gt;	&lt;/span&gt;端口号&lt;br&gt;&lt;span style=&quot;white-space: pre&quot;&gt;	&lt;/span&gt;handler" style="rounded=1;whiteSpace=wrap;html=1;labelBackgroundColor=none;fontColor=#000000;align=left;" vertex="1" parent="1">
          <mxGeometry y="270" width="120" height="80" as="geometry" />
        </mxCell>
        <mxCell id="bU6mloSPx2sbx54e6or_-14" style="edgeStyle=orthogonalEdgeStyle;rounded=0;orthogonalLoop=1;jettySize=auto;html=1;exitX=0.5;exitY=1;exitDx=0;exitDy=0;entryX=0.5;entryY=0;entryDx=0;entryDy=0;fontColor=#000000;" edge="1" parent="1" source="bU6mloSPx2sbx54e6or_-7" target="bU6mloSPx2sbx54e6or_-8">
          <mxGeometry relative="1" as="geometry" />
        </mxCell>
        <mxCell id="bU6mloSPx2sbx54e6or_-7" value="&lt;pre style=&quot;font-family: &amp;#34;jetbrains mono&amp;#34; ; font-size: 9.8pt&quot;&gt;创建序列化实例对象&lt;/pre&gt;" style="rounded=1;whiteSpace=wrap;html=1;fillColor=#d5e8d4;strokeColor=#82b366;" vertex="1" parent="1">
          <mxGeometry x="151" y="370" width="160" height="60" as="geometry" />
        </mxCell>
        <mxCell id="bU6mloSPx2sbx54e6or_-15" style="edgeStyle=orthogonalEdgeStyle;rounded=0;orthogonalLoop=1;jettySize=auto;html=1;exitX=0.5;exitY=1;exitDx=0;exitDy=0;entryX=0.5;entryY=0;entryDx=0;entryDy=0;fontColor=#000000;" edge="1" parent="1" source="bU6mloSPx2sbx54e6or_-8" target="bU6mloSPx2sbx54e6or_-9">
          <mxGeometry relative="1" as="geometry" />
        </mxCell>
        <mxCell id="bU6mloSPx2sbx54e6or_-8" value="&lt;pre style=&quot;font-family: &amp;#34;jetbrains mono&amp;#34; ; font-size: 9.8pt&quot;&gt;创建反序列化实例对象&lt;/pre&gt;" style="rounded=1;whiteSpace=wrap;html=1;fillColor=#d5e8d4;strokeColor=#82b366;" vertex="1" parent="1">
          <mxGeometry x="150" y="460" width="160" height="60" as="geometry" />
        </mxCell>
        <mxCell id="bU6mloSPx2sbx54e6or_-16" style="edgeStyle=orthogonalEdgeStyle;rounded=0;orthogonalLoop=1;jettySize=auto;html=1;exitX=0.5;exitY=1;exitDx=0;exitDy=0;entryX=0.5;entryY=0;entryDx=0;entryDy=0;fontColor=#000000;" edge="1" parent="1" source="bU6mloSPx2sbx54e6or_-9" target="bU6mloSPx2sbx54e6or_-10">
          <mxGeometry relative="1" as="geometry" />
        </mxCell>
        <mxCell id="bU6mloSPx2sbx54e6or_-9" value="&lt;pre style=&quot;font-family: &amp;#34;jetbrains mono&amp;#34; ; font-size: 9.8pt&quot;&gt;创建ServiceManager对象&lt;/pre&gt;" style="rounded=1;whiteSpace=wrap;html=1;fillColor=#d5e8d4;strokeColor=#82b366;" vertex="1" parent="1">
          <mxGeometry x="150" y="554" width="160" height="60" as="geometry" />
        </mxCell>
        <mxCell id="bU6mloSPx2sbx54e6or_-10" value="&lt;pre style=&quot;font-family: &amp;#34;jetbrains mono&amp;#34; ; font-size: 9.8pt&quot;&gt;创建ServiceInvoker对象&lt;/pre&gt;" style="rounded=1;whiteSpace=wrap;html=1;fillColor=#d5e8d4;strokeColor=#82b366;" vertex="1" parent="1">
          <mxGeometry x="150" y="640" width="160" height="60" as="geometry" />
        </mxCell>
        <mxCell id="bU6mloSPx2sbx54e6or_-25" value="" style="edgeStyle=orthogonalEdgeStyle;rounded=0;orthogonalLoop=1;jettySize=auto;html=1;fontColor=#000000;" edge="1" parent="1" source="bU6mloSPx2sbx54e6or_-17" target="bU6mloSPx2sbx54e6or_-24">
          <mxGeometry relative="1" as="geometry" />
        </mxCell>
        <mxCell id="bU6mloSPx2sbx54e6or_-17" value="&lt;pre style=&quot;font-family: &amp;#34;jetbrains mono&amp;#34; ; font-size: 9.8pt&quot;&gt;调用网络模块实例的&lt;br/&gt;初始化方法&lt;/pre&gt;" style="rounded=1;whiteSpace=wrap;html=1;fillColor=#d5e8d4;strokeColor=#82b366;" vertex="1" parent="1">
          <mxGeometry x="536" y="280" width="160" height="60" as="geometry" />
        </mxCell>
        <mxCell id="bU6mloSPx2sbx54e6or_-18" value="&lt;pre style=&quot;font-family: &amp;#34;jetbrains mono&amp;#34; ; font-size: 9.8pt&quot;&gt;handler的onRequest重写&lt;/pre&gt;" style="text;html=1;strokeColor=none;fillColor=none;align=center;verticalAlign=middle;whiteSpace=wrap;rounded=0;labelBackgroundColor=none;fontColor=#000000;" vertex="1" parent="1">
          <mxGeometry x="536" y="240" width="160" height="30" as="geometry" />
        </mxCell>
        <mxCell id="bU6mloSPx2sbx54e6or_-21" value="参数包括：&lt;br&gt;&lt;span&gt;	&lt;/span&gt;&lt;span style=&quot;white-space: pre&quot;&gt;	&lt;/span&gt;输入流&amp;nbsp;recive&lt;br&gt;&lt;span&gt;	&lt;/span&gt;&lt;span style=&quot;white-space: pre&quot;&gt;	&lt;/span&gt;输出流&amp;nbsp;toResp" style="rounded=1;whiteSpace=wrap;html=1;labelBackgroundColor=none;fontColor=#000000;align=left;" vertex="1" parent="1">
          <mxGeometry x="380" y="270" width="120" height="80" as="geometry" />
        </mxCell>
        <mxCell id="bU6mloSPx2sbx54e6or_-27" value="" style="edgeStyle=orthogonalEdgeStyle;rounded=0;orthogonalLoop=1;jettySize=auto;html=1;fontColor=#000000;" edge="1" parent="1" source="bU6mloSPx2sbx54e6or_-24" target="bU6mloSPx2sbx54e6or_-26">
          <mxGeometry relative="1" as="geometry" />
        </mxCell>
        <mxCell id="bU6mloSPx2sbx54e6or_-24" value="&lt;pre style=&quot;font-family: &amp;#34;jetbrains mono&amp;#34; ; font-size: 9.8pt&quot;&gt;新建Response对象&lt;/pre&gt;" style="rounded=1;whiteSpace=wrap;html=1;fillColor=#d5e8d4;strokeColor=#82b366;" vertex="1" parent="1">
          <mxGeometry x="536" y="372" width="160" height="60" as="geometry" />
        </mxCell>
        <mxCell id="bU6mloSPx2sbx54e6or_-29" value="" style="edgeStyle=orthogonalEdgeStyle;rounded=0;orthogonalLoop=1;jettySize=auto;html=1;fontColor=#000000;" edge="1" parent="1" source="bU6mloSPx2sbx54e6or_-26" target="bU6mloSPx2sbx54e6or_-28">
          <mxGeometry relative="1" as="geometry" />
        </mxCell>
        <mxCell id="bU6mloSPx2sbx54e6or_-26" value="&lt;pre style=&quot;font-family: &amp;#34;jetbrains mono&amp;#34; ; font-size: 9.8pt&quot;&gt;新建 inBytes 数组，&lt;br/&gt;存放输入流中读出的数据&lt;/pre&gt;" style="rounded=1;whiteSpace=wrap;html=1;fillColor=#d5e8d4;strokeColor=#82b366;" vertex="1" parent="1">
          <mxGeometry x="536" y="467" width="160" height="60" as="geometry" />
        </mxCell>
        <mxCell id="bU6mloSPx2sbx54e6or_-31" value="" style="edgeStyle=orthogonalEdgeStyle;rounded=0;orthogonalLoop=1;jettySize=auto;html=1;fontColor=#000000;" edge="1" parent="1" source="bU6mloSPx2sbx54e6or_-28" target="bU6mloSPx2sbx54e6or_-30">
          <mxGeometry relative="1" as="geometry" />
        </mxCell>
        <mxCell id="bU6mloSPx2sbx54e6or_-28" value="&lt;pre style=&quot;font-family: &amp;#34;jetbrains mono&amp;#34; ; font-size: 9.8pt&quot;&gt;反序列化数组中的元素&lt;br/&gt;解码得到请求信息&lt;/pre&gt;" style="rounded=1;whiteSpace=wrap;html=1;fillColor=#d5e8d4;strokeColor=#82b366;" vertex="1" parent="1">
          <mxGeometry x="536" y="562" width="160" height="60" as="geometry" />
        </mxCell>
        <mxCell id="bU6mloSPx2sbx54e6or_-33" value="" style="edgeStyle=orthogonalEdgeStyle;rounded=0;orthogonalLoop=1;jettySize=auto;html=1;fontColor=#000000;" edge="1" parent="1" source="bU6mloSPx2sbx54e6or_-30" target="bU6mloSPx2sbx54e6or_-32">
          <mxGeometry relative="1" as="geometry" />
        </mxCell>
        <mxCell id="bU6mloSPx2sbx54e6or_-30" value="&lt;pre style=&quot;font-family: &amp;#34;jetbrains mono&amp;#34; ; font-size: 9.8pt&quot;&gt;打印请求信息&lt;/pre&gt;" style="rounded=1;whiteSpace=wrap;html=1;fillColor=#d5e8d4;strokeColor=#82b366;" vertex="1" parent="1">
          <mxGeometry x="536" y="659" width="160" height="60" as="geometry" />
        </mxCell>
        <mxCell id="bU6mloSPx2sbx54e6or_-35" value="" style="edgeStyle=orthogonalEdgeStyle;rounded=0;orthogonalLoop=1;jettySize=auto;html=1;fontColor=#000000;" edge="1" parent="1" source="bU6mloSPx2sbx54e6or_-32" target="bU6mloSPx2sbx54e6or_-34">
          <mxGeometry relative="1" as="geometry" />
        </mxCell>
        <mxCell id="bU6mloSPx2sbx54e6or_-32" value="&lt;pre style=&quot;font-family: &amp;#34;jetbrains mono&amp;#34; ; font-size: 9.8pt&quot;&gt;从request中找到&lt;br/&gt;ServiceDescriptor描述字符串&lt;br/&gt;&lt;/pre&gt;" style="rounded=1;whiteSpace=wrap;html=1;fillColor=#d5e8d4;strokeColor=#82b366;" vertex="1" parent="1">
          <mxGeometry x="511" y="760" width="210" height="60" as="geometry" />
        </mxCell>
        <mxCell id="bU6mloSPx2sbx54e6or_-44" style="edgeStyle=orthogonalEdgeStyle;rounded=0;orthogonalLoop=1;jettySize=auto;html=1;exitX=0.5;exitY=1;exitDx=0;exitDy=0;entryX=0.5;entryY=0;entryDx=0;entryDy=0;fontColor=#000000;" edge="1" parent="1" source="bU6mloSPx2sbx54e6or_-34" target="bU6mloSPx2sbx54e6or_-38">
          <mxGeometry relative="1" as="geometry" />
        </mxCell>
        <mxCell id="bU6mloSPx2sbx54e6or_-34" value="&lt;pre&gt;&lt;font face=&quot;jetbrains mono&quot;&gt;&lt;span style=&quot;font-size: 13.0667px&quot;&gt;根据ServiceInstance找到&lt;br/&gt;&lt;/span&gt;&lt;span style=&quot;font-size: 13.0667px&quot;&gt;ServiceInstance&lt;/span&gt;&lt;span style=&quot;font-size: 9.8pt&quot;&gt;&lt;br&gt;&lt;/span&gt;&lt;/font&gt;&lt;/pre&gt;" style="rounded=1;whiteSpace=wrap;html=1;fillColor=#f8cecc;strokeColor=#b85450;" vertex="1" parent="1">
          <mxGeometry x="511" y="854" width="210" height="60" as="geometry" />
        </mxCell>
        <mxCell id="bU6mloSPx2sbx54e6or_-41" value="" style="edgeStyle=orthogonalEdgeStyle;rounded=0;orthogonalLoop=1;jettySize=auto;html=1;fontColor=#000000;" edge="1" parent="1" source="bU6mloSPx2sbx54e6or_-38" target="bU6mloSPx2sbx54e6or_-40">
          <mxGeometry relative="1" as="geometry" />
        </mxCell>
        <mxCell id="bU6mloSPx2sbx54e6or_-38" value="反射调用两个参数 方法+实例&lt;br&gt;serviceInvoker.invoke(sis,request)" style="rounded=1;whiteSpace=wrap;html=1;labelBackgroundColor=none;strokeWidth=1;fillColor=#f8cecc;strokeColor=#b85450;" vertex="1" parent="1">
          <mxGeometry x="511" y="952" width="210" height="60" as="geometry" />
        </mxCell>
        <mxCell id="bU6mloSPx2sbx54e6or_-43" value="" style="edgeStyle=orthogonalEdgeStyle;rounded=0;orthogonalLoop=1;jettySize=auto;html=1;fontColor=#000000;" edge="1" parent="1" source="bU6mloSPx2sbx54e6or_-40" target="bU6mloSPx2sbx54e6or_-42">
          <mxGeometry relative="1" as="geometry" />
        </mxCell>
        <mxCell id="bU6mloSPx2sbx54e6or_-40" value="将处理结果封装到Response中" style="rounded=1;whiteSpace=wrap;html=1;labelBackgroundColor=none;strokeWidth=1;fillColor=#d5e8d4;strokeColor=#82b366;" vertex="1" parent="1">
          <mxGeometry x="511" y="1049" width="210" height="60" as="geometry" />
        </mxCell>
        <mxCell id="bU6mloSPx2sbx54e6or_-42" value="序列化 Response&lt;br&gt;并写入到输出流&lt;br&gt;打印日志" style="rounded=1;whiteSpace=wrap;html=1;labelBackgroundColor=none;strokeWidth=1;fillColor=#d5e8d4;strokeColor=#82b366;" vertex="1" parent="1">
          <mxGeometry x="511" y="1147" width="210" height="60" as="geometry" />
        </mxCell>
        <mxCell id="bU6mloSPx2sbx54e6or_-48" value="" style="edgeStyle=orthogonalEdgeStyle;rounded=0;orthogonalLoop=1;jettySize=auto;html=1;fontColor=#000000;" edge="1" parent="1" source="bU6mloSPx2sbx54e6or_-45" target="bU6mloSPx2sbx54e6or_-47">
          <mxGeometry relative="1" as="geometry" />
        </mxCell>
        <mxCell id="bU6mloSPx2sbx54e6or_-45" value="&lt;pre&gt;&lt;font face=&quot;jetbrains mono&quot;&gt;&lt;span style=&quot;font-size: 13.0667px&quot;&gt;传入参数，接口和bean&lt;/span&gt;&lt;/font&gt;&lt;/pre&gt;" style="rounded=1;whiteSpace=wrap;html=1;fillColor=#d5e8d4;strokeColor=#82b366;" vertex="1" parent="1">
          <mxGeometry x="960" y="854" width="210" height="60" as="geometry" />
        </mxCell>
        <mxCell id="bU6mloSPx2sbx54e6or_-46" value="&lt;pre style=&quot;text-align: center ; text-indent: 0px ; background-color: rgb(248 , 249 , 250)&quot;&gt;&lt;font face=&quot;jetbrains mono&quot;&gt;&lt;span style=&quot;font-size: 13.0667px&quot;&gt;RpcServer的register方法底层实现就是&lt;br/&gt;ServiceManager的register方法&lt;/span&gt;&lt;/font&gt;&lt;/pre&gt;" style="text;whiteSpace=wrap;html=1;fontColor=#000000;" vertex="1" parent="1">
          <mxGeometry x="962" y="790" width="210" height="46" as="geometry" />
        </mxCell>
        <mxCell id="bU6mloSPx2sbx54e6or_-50" value="" style="edgeStyle=orthogonalEdgeStyle;rounded=0;orthogonalLoop=1;jettySize=auto;html=1;fontColor=#000000;" edge="1" parent="1" source="bU6mloSPx2sbx54e6or_-47" target="bU6mloSPx2sbx54e6or_-49">
          <mxGeometry relative="1" as="geometry" />
        </mxCell>
        <mxCell id="bU6mloSPx2sbx54e6or_-47" value="&lt;pre&gt;&lt;font face=&quot;jetbrains mono&quot;&gt;&lt;span style=&quot;font-size: 13.0667px&quot;&gt;通过反射获取接口中所有的方法&lt;/span&gt;&lt;/font&gt;&lt;/pre&gt;" style="rounded=1;whiteSpace=wrap;html=1;fillColor=#d5e8d4;strokeColor=#82b366;" vertex="1" parent="1">
          <mxGeometry x="960" y="950" width="210" height="60" as="geometry" />
        </mxCell>
        <mxCell id="bU6mloSPx2sbx54e6or_-52" value="" style="edgeStyle=orthogonalEdgeStyle;rounded=0;orthogonalLoop=1;jettySize=auto;html=1;fontColor=#000000;" edge="1" parent="1" source="bU6mloSPx2sbx54e6or_-49" target="bU6mloSPx2sbx54e6or_-51">
          <mxGeometry relative="1" as="geometry" />
        </mxCell>
        <mxCell id="bU6mloSPx2sbx54e6or_-49" value="&lt;pre&gt;&lt;font face=&quot;jetbrains mono&quot;&gt;&lt;span style=&quot;font-size: 13.0667px&quot;&gt;新建ServiceInstance&lt;/span&gt;&lt;/font&gt;&lt;br&gt;&lt;/pre&gt;" style="rounded=1;whiteSpace=wrap;html=1;fillColor=#d5e8d4;strokeColor=#82b366;" vertex="1" parent="1">
          <mxGeometry x="960" y="1047" width="210" height="60" as="geometry" />
        </mxCell>
        <mxCell id="bU6mloSPx2sbx54e6or_-54" value="" style="edgeStyle=orthogonalEdgeStyle;rounded=0;orthogonalLoop=1;jettySize=auto;html=1;fontColor=#000000;" edge="1" parent="1" source="bU6mloSPx2sbx54e6or_-51" target="bU6mloSPx2sbx54e6or_-53">
          <mxGeometry relative="1" as="geometry" />
        </mxCell>
        <mxCell id="bU6mloSPx2sbx54e6or_-51" value="&lt;pre&gt;&lt;font face=&quot;jetbrains mono&quot;&gt;&lt;span style=&quot;font-size: 13.0667px&quot;&gt;新建ServiceDescriptor&lt;/span&gt;&lt;/font&gt;&lt;br&gt;&lt;/pre&gt;" style="rounded=1;whiteSpace=wrap;html=1;fillColor=#d5e8d4;strokeColor=#82b366;" vertex="1" parent="1">
          <mxGeometry x="960" y="1146" width="210" height="60" as="geometry" />
        </mxCell>
        <mxCell id="bU6mloSPx2sbx54e6or_-53" value="&lt;pre&gt;&lt;font face=&quot;jetbrains mono&quot;&gt;&lt;span style=&quot;font-size: 13.0667px&quot;&gt;ServiceInstance和ServiceDescriptor&lt;br/&gt;键值对的形式存储到service&lt;/span&gt;&lt;/font&gt;&lt;br&gt;&lt;/pre&gt;" style="rounded=1;whiteSpace=wrap;html=1;fillColor=#d5e8d4;strokeColor=#82b366;" vertex="1" parent="1">
          <mxGeometry x="950" y="1246" width="230" height="60" as="geometry" />
        </mxCell>
        <mxCell id="DqeXP-BM6H6NjHvskQRk-1" value="参数包括：&lt;br&gt;&lt;span&gt;	&lt;/span&gt;&lt;span style=&quot;white-space: pre&quot;&gt;	&lt;/span&gt;接口，方法所属的接口&lt;br&gt;&lt;span&gt;	&lt;/span&gt;&lt;span style=&quot;white-space: pre&quot;&gt;	&lt;/span&gt;bean，所属接口实现&amp;nbsp; &amp;nbsp; &amp;nbsp; &amp;nbsp; &amp;nbsp; &amp;nbsp; &amp;nbsp; &amp;nbsp; &amp;nbsp; &amp;nbsp; &amp;nbsp; &amp;nbsp; 类的实例" style="rounded=1;whiteSpace=wrap;html=1;labelBackgroundColor=none;fontColor=#000000;align=left;" vertex="1" parent="1">
          <mxGeometry x="779" y="847" width="151" height="80" as="geometry" />
        </mxCell>
        <mxCell id="3IAMp_L_kuW9Ju3ecMRI-1" value="&lt;pre style=&quot;text-align: center&quot;&gt;&lt;font face=&quot;jetbrains mono&quot;&gt;&lt;span style=&quot;font-size: 13.0667px&quot;&gt;ServiceInstance就是一个&lt;br/&gt;保存方法与bean的类的&lt;br/&gt;实例&lt;/span&gt;&lt;/font&gt;&lt;/pre&gt;" style="rounded=1;whiteSpace=wrap;html=1;labelBackgroundColor=none;fontColor=#000000;align=left;" vertex="1" parent="1">
          <mxGeometry x="779" y="1037" width="151" height="80" as="geometry" />
        </mxCell>
      </root>
    </mxGraphModel>
  </diagram>
  <diagram id="DVjT0W08BS4ew8Y2O3mc" name="HttpTransportServer.init">
    <mxGraphModel dx="633" dy="382" grid="1" gridSize="10" guides="1" tooltips="1" connect="1" arrows="1" fold="1" page="1" pageScale="1" pageWidth="827" pageHeight="1169" math="0" shadow="0">
      <root>
        <mxCell id="0" />
        <mxCell id="1" parent="0" />
        <mxCell id="Fy8T_VjnAk802TxGcW72-1" style="edgeStyle=orthogonalEdgeStyle;rounded=0;orthogonalLoop=1;jettySize=auto;html=1;exitX=0.5;exitY=1;exitDx=0;exitDy=0;entryX=0.5;entryY=0;entryDx=0;entryDy=0;fontColor=#000000;" edge="1" parent="1" source="Fy8T_VjnAk802TxGcW72-2" target="Fy8T_VjnAk802TxGcW72-6">
          <mxGeometry relative="1" as="geometry" />
        </mxCell>
        <mxCell id="Fy8T_VjnAk802TxGcW72-2" value="&lt;pre style=&quot;font-family: &amp;#34;jetbrains mono&amp;#34; ; font-size: 9.8pt&quot;&gt;传入初始化的参数&lt;br&gt;&lt;/pre&gt;" style="rounded=1;whiteSpace=wrap;html=1;fillColor=#d5e8d4;strokeColor=#82b366;" vertex="1" parent="1">
          <mxGeometry x="150" y="98" width="160" height="60" as="geometry" />
        </mxCell>
        <mxCell id="Fy8T_VjnAk802TxGcW72-3" value="&lt;pre style=&quot;font-family: &amp;#34;jetbrains mono&amp;#34; ; font-size: 9.8pt&quot;&gt;HttpTransportServer的初始化过程&lt;/pre&gt;" style="text;html=1;strokeColor=none;fillColor=none;align=center;verticalAlign=middle;whiteSpace=wrap;rounded=0;labelBackgroundColor=none;fontColor=#000000;" vertex="1" parent="1">
          <mxGeometry x="152" y="50" width="160" height="30" as="geometry" />
        </mxCell>
        <mxCell id="Fy8T_VjnAk802TxGcW72-4" value="具体包括：&lt;br&gt;&lt;span style=&quot;white-space: pre&quot;&gt;	&lt;/span&gt;handler&lt;br&gt;&lt;span style=&quot;white-space: pre&quot;&gt;	&lt;/span&gt;端口号" style="rounded=1;whiteSpace=wrap;html=1;labelBackgroundColor=none;fontColor=#000000;align=left;" vertex="1" parent="1">
          <mxGeometry y="80" width="120" height="80" as="geometry" />
        </mxCell>
        <mxCell id="Fy8T_VjnAk802TxGcW72-6" value="&lt;pre style=&quot;font-family: &amp;#34;jetbrains mono&amp;#34; ; font-size: 9.8pt&quot;&gt;使用Jetty容器完成init()功能&lt;/pre&gt;" style="rounded=1;whiteSpace=wrap;html=1;fillColor=#d5e8d4;strokeColor=#82b366;fontColor=default;" vertex="1" parent="1">
          <mxGeometry x="150" y="190" width="160" height="60" as="geometry" />
        </mxCell>
      </root>
    </mxGraphModel>
  </diagram>
</mxfile>
